<?xml version="1.0" standalone="no"?>
<!DOCTYPE svg PUBLIC "-//W3C//DTD SVG 20010904//EN"
 "http://www.w3.org/TR/2001/REC-SVG-20010904/DTD/svg10.dtd">
<svg version="1.0" xmlns="http://www.w3.org/2000/svg"
 width="672.000000pt" height="438.000000pt" viewBox="0 0 672.000000 438.000000"
 preserveAspectRatio="xMidYMid meet">

<g transform="translate(0.000000,438.000000) scale(0.100000,-0.100000)"
fill="#000000" stroke="none">
<path d="M0 2190 l0 -2190 3360 0 3360 0 0 2190 0 2190 -3360 0 -3360 0 0
-2190z m3580 1205 c111 -35 189 -83 274 -168 109 -109 154 -190 180 -331 8
-39 11 -73 7 -76 -3 -3 -7 -32 -9 -65 -1 -42 1 -56 8 -45 6 9 10 10 10 3 0 -6
-4 -15 -10 -18 -5 -3 -9 -27 -9 -53 1 -56 -21 -126 -66 -207 -84 -151 -229
-261 -403 -306 -66 -17 -111 -19 -359 -19 l-283 0 0 -404 0 -403 -25 5 -25 4
0 1024 0 1024 -77 0 c-49 0 -73 4 -64 9 8 5 11 16 8 25 -8 19 91 24 503 21
241 -2 293 -5 340 -20z m-1147 -2312 l-42 -4 -4 -62 -3 -62 -2 68 -2 67 48 -2
47 -1 -42 -4z m181 -9 c20 -20 20 -38 0 -59 -14 -13 -15 -21 -5 -43 11 -25 10
-26 -4 -8 -8 11 -15 23 -15 28 0 4 -13 8 -30 8 -16 0 -30 4 -30 8 0 4 15 6 33
4 22 -2 38 2 47 13 21 26 0 50 -44 50 -20 0 -36 3 -36 8 0 14 69 7 84 -9z
m119 9 c-38 -4 -43 -7 -43 -29 0 -21 5 -24 38 -26 l37 -1 -37 -4 c-34 -4 -37
-7 -41 -41 -2 -20 -4 -4 -5 36 l-2 72 48 -2 47 -1 -42 -4z m147 -2 c-38 -5
-45 -10 -46 -28 -1 -20 4 -23 40 -24 l41 -2 -40 -6 c-34 -5 -40 -9 -40 -31 0
-22 5 -26 45 -31 53 -6 33 -22 -22 -17 l-33 3 -3 73 -3 72 53 -2 53 -1 -45 -6z
m195 -1 c4 -7 -2 -9 -19 -4 -38 9 -76 -19 -76 -56 0 -40 26 -63 67 -58 36 4
45 -7 14 -17 -74 -23 -126 67 -73 128 17 19 77 24 87 7z m143 3 c-27 -4 -28
-6 -28 -74 0 -41 -4 -68 -9 -64 -5 3 -9 34 -7 70 2 62 1 64 -23 68 -15 2 1 4
34 4 33 0 48 -2 33 -4z m192 -60 l12 -58 20 63 c10 34 22 62 27 62 4 0 16 -28
27 -62 l18 -61 14 54 c15 62 39 96 27 39 -15 -68 -31 -115 -40 -115 -6 0 -17
24 -25 53 -8 28 -17 52 -20 52 -3 0 -12 -24 -20 -52 -8 -29 -20 -52 -25 -51
-10 1 -25 44 -40 112 -4 20 -3 31 2 28 5 -3 15 -32 23 -64z m253 60 c-38 -4
-43 -7 -43 -29 0 -22 4 -24 42 -24 23 0 39 -2 37 -5 -5 -5 -43 -13 -66 -14 -7
-1 -13 -12 -13 -26 0 -22 4 -25 40 -25 22 0 40 -4 40 -10 0 -5 -20 -10 -45
-10 l-45 0 0 75 0 75 48 -2 47 -1 -42 -4z m177 -13 c25 -25 26 -81 3 -103 -10
-8 -35 -18 -55 -22 l-38 -7 0 76 0 76 35 0 c22 0 43 -8 55 -20z m159 -6 c38
-48 22 -97 -36 -113 -20 -6 -40 -8 -45 -5 -4 3 -8 36 -8 75 l0 69 34 0 c25 0
40 -7 55 -26z m143 19 c-22 -4 -23 -8 -20 -69 l3 -64 -30 1 c-24 1 -25 3 -7 6
20 4 22 10 22 63 0 56 -1 59 -27 63 -16 2 -3 4 27 4 30 0 45 -2 32 -4z m121
-43 c34 -61 28 -67 -7 -8 l-25 42 -4 -65 -3 -64 -2 73 c-1 39 1 72 6 72 4 0
20 -23 35 -50z m57 -20 c0 -66 -10 -90 -24 -54 -3 8 -2 12 4 9 6 -4 10 17 10
54 0 34 2 61 5 61 3 0 5 -31 5 -70z m71 23 c-12 -20 -14 -14 -5 12 4 9 9 14
11 11 3 -2 0 -13 -6 -23z m-1938 -20 c-7 -2 -19 -2 -25 0 -7 3 -2 5 12 5 14 0
19 -2 13 -5z"/>
<path d="M2920 2765 l0 -595 120 0 120 0 0 595 0 595 -120 0 -120 0 0 -595z"/>
<path d="M3230 2765 l0 -597 148 4 c179 6 246 25 359 101 127 85 226 231 254
375 15 79 7 231 -16 297 -35 101 -113 213 -199 283 -46 38 -147 89 -211 107
-34 9 -120 19 -197 22 l-138 6 0 -598z"/>
<path d="M3770 1020 c0 -56 1 -60 23 -60 29 0 57 29 57 58 0 28 -34 62 -60 62
-18 0 -20 -7 -20 -60z"/>
<path d="M3920 1020 c0 -59 0 -60 29 -60 35 0 54 21 54 61 0 33 -26 58 -60 59
-21 0 -23 -4 -23 -60z"/>
</g>
</svg>
